<?xml version="1.0" encoding="utf-8"?>
<!-- Generator: Adobe Illustrator 20.0.0, SVG Export Plug-In . SVG Version: 6.00 Build 0)  -->
<svg version="1.1" id="Layer_1" xmlns="http://www.w3.org/2000/svg" xmlns:xlink="http://www.w3.org/1999/xlink" x="0px" y="0px"
	 viewBox="0 0 15 19" style="enable-background:new 0 0 15 19;" xml:space="preserve">
<style type="text/css">
	.st0{fill:#FFFFFF;}
</style>
<g>
	<path class="st0" d="M14,0H1C0.5,0,0.2,0.4,0.2,0.9v17.3C0.2,18.6,0.5,19,1,19H14c0.5,0,0.9-0.4,0.9-0.9V0.9C14.8,0.4,14.5,0,14,0
		L14,0z M13.1,1.7v2.6H1.9V1.7H13.1z M1.9,17.3V6h11.2v11.2L1.9,17.3L1.9,17.3z M1.9,17.3"/>
	<path class="st0" d="M5,6.8H3.2C2.9,6.8,2.8,7,2.8,7.2V9c0,0.2,0.2,0.4,0.4,0.4H5c0.2,0,0.4-0.2,0.4-0.4V7.2C5.4,7,5.2,6.8,5,6.8
		L5,6.8z M5,6.8"/>
	<path class="st0" d="M8.4,6.8H6.6C6.4,6.8,6.2,7,6.2,7.2V9c0,0.2,0.2,0.4,0.4,0.4h1.8c0.2,0,0.4-0.2,0.4-0.4V7.2
		C8.8,7,8.6,6.8,8.4,6.8L8.4,6.8z M8.4,6.8"/>
	<path class="st0" d="M11.8,6.8H10C9.8,6.8,9.6,7,9.6,7.2V9c0,0.2,0.2,0.4,0.4,0.4h1.8c0.2,0,0.4-0.2,0.4-0.4V7.2
		C12.2,7,12.1,6.8,11.8,6.8L11.8,6.8z M11.8,6.8"/>
	<path class="st0" d="M5,10.3H3.2c-0.2,0-0.4,0.2-0.4,0.4v1.8c0,0.2,0.2,0.4,0.4,0.4H5c0.2,0,0.4-0.2,0.4-0.4v-1.8
		C5.4,10.5,5.2,10.3,5,10.3L5,10.3z M5,10.3"/>
	<path class="st0" d="M8.4,10.3H6.6c-0.2,0-0.4,0.2-0.4,0.4v1.8c0,0.2,0.2,0.4,0.4,0.4h1.8c0.2,0,0.4-0.2,0.4-0.4v-1.8
		C8.8,10.5,8.6,10.3,8.4,10.3L8.4,10.3z M8.4,10.3"/>
	<path class="st0" d="M5,13.8H3.2c-0.2,0-0.4,0.2-0.4,0.4v1.8c0,0.2,0.2,0.4,0.4,0.4H5c0.2,0,0.4-0.2,0.4-0.4v-1.8
		C5.4,14,5.2,13.8,5,13.8L5,13.8z M5,13.8"/>
	<path class="st0" d="M8.4,13.8H6.6c-0.2,0-0.4,0.2-0.4,0.4v1.8c0,0.2,0.2,0.4,0.4,0.4h1.8c0.2,0,0.4-0.2,0.4-0.4v-1.8
		C8.8,14,8.6,13.8,8.4,13.8L8.4,13.8z M8.4,13.8"/>
	<path class="st0" d="M11.8,10.3H10c-0.2,0-0.4,0.2-0.4,0.4v5.3c0,0.2,0.2,0.4,0.4,0.4h1.8c0.2,0,0.4-0.2,0.4-0.4v-5.3
		C12.2,10.5,12.1,10.3,11.8,10.3L11.8,10.3z M11.8,10.3"/>
</g>
</svg>
