<?xml version="1.0" encoding="utf-8"?>
<!-- Generator: Adobe Illustrator 20.0.0, SVG Export Plug-In . SVG Version: 6.00 Build 0)  -->
<svg version="1.1" id="Layer_1" xmlns="http://www.w3.org/2000/svg" xmlns:xlink="http://www.w3.org/1999/xlink" x="0px" y="0px"
	 viewBox="0 0 21 17" style="enable-background:new 0 0 21 17;" xml:space="preserve">
<style type="text/css">
	.st0{fill:#FFFFFF;}
</style>
<g>
	<g>
		<path class="st0" d="M10.5,3.7L3,9.8c0,0,0,0,0,0c0,0,0,0,0,0v6.2c0,0.2,0.1,0.4,0.2,0.6C3.4,16.9,3.6,17,3.8,17h5v-5h3.3v5h5
			c0.2,0,0.4-0.1,0.6-0.2c0.2-0.2,0.2-0.4,0.2-0.6V9.9c0,0,0-0.1,0-0.1L10.5,3.7z M10.5,3.7"/>
		<path class="st0" d="M20.8,8.4L18,6.1V0.8c0-0.1,0-0.2-0.1-0.3c-0.1-0.1-0.2-0.1-0.3-0.1h-2.5c-0.1,0-0.2,0-0.3,0.1
			c-0.1,0.1-0.1,0.2-0.1,0.3v2.5l-3.2-2.7c-0.3-0.2-0.6-0.3-1-0.3c-0.4,0-0.7,0.1-1,0.3L0.1,8.4C0.1,8.5,0,8.6,0,8.7
			C0,8.8,0,8.9,0.1,9l0.8,1c0.1,0.1,0.2,0.1,0.3,0.1c0.1,0,0.2,0,0.3-0.1l9-7.5l9,7.5c0.1,0.1,0.2,0.1,0.3,0.1h0
			c0.1,0,0.2-0.1,0.3-0.1l0.8-1C20.9,8.9,21,8.8,21,8.7C21,8.6,20.9,8.5,20.8,8.4L20.8,8.4z M20.8,8.4"/>
	</g>
</g>
</svg>
