<?xml version="1.0" encoding="utf-8"?>
<!-- Generator: Adobe Illustrator 20.0.0, SVG Export Plug-In . SVG Version: 6.00 Build 0)  -->
<svg version="1.1" id="Layer_1" xmlns="http://www.w3.org/2000/svg" xmlns:xlink="http://www.w3.org/1999/xlink" x="0px" y="0px"
	 viewBox="0 0 19 19" style="enable-background:new 0 0 19 19;" xml:space="preserve">
<style type="text/css">
	.st0{fill:#FFFFFF;}
</style>
<g>
	<path class="st0" d="M12.9,0h-1.4v9.9H0.2V11h12.7V0z M12.9,0"/>
	<path class="st0" d="M13.6,2.4v8.3l1.5,0v1.7c0,0.3-0.3,0.6-0.6,0.6h-1.6c0-0.1,0-0.1,0-0.1c0.1-0.5,0.2-1,0.2-1.5h-13
		c0,5.7,4.4,7.6,4.4,7.6h3.9v-1.4l0.4-0.7h0c0.1,0,0.2-0.1,0.3-0.1c1.6-0.6,2.5-1.7,3.1-2.5h2.2c1,0,1.9-0.8,1.9-1.9v-1.7l1.4,0
		l1-8.3L13.6,2.4z M13.6,2.4"/>
	<rect x="13.6" y="1" class="st0" width="5.2" height="1"/>
</g>
</svg>
