<?xml version="1.0" encoding="utf-8"?>
<!-- Generator: Adobe Illustrator 20.1.0, SVG Export Plug-In . SVG Version: 6.00 Build 0)  -->
<svg version="1.1" id="Layer_1" xmlns="http://www.w3.org/2000/svg" xmlns:xlink="http://www.w3.org/1999/xlink" x="0px" y="0px"
	 viewBox="0 0 221 78" style="enable-background:new 0 0 221 78;" xml:space="preserve">
<style type="text/css">
	.st0{fill:#C1E5E4;}
	.st1{fill:#006BB5;}
	.st2{fill:#00ACA7;}
	.st3{fill:#231F20;}
</style>
<path class="st0" d="M102.5,64.9C50.7,59,10.9,30.3,12.2,0.2C4.4,7.7,0,16.3,0,25.4C0,54.4,45,78,100.4,78
	c50.8,0,92.7-19.8,99.5-45.4C187.6,56.1,147.9,70.1,102.5,64.9z"/>
<path class="st1" d="M28.1,35c0,4-0.6,6.9-1.7,8.5c-1.4,2.1-4,3.1-7.9,3.1c-3.6,0-6.1-0.8-7.5-2.5c-1.3-1.6-2-4.1-2-7.8v-5.2h7.4
	v4.2c0,2.4,0.7,3.5,2.1,3.5c1.4,0,2.1-1.2,2.1-3.5c0-2.4-1.1-4.1-3-5.4l-5.6-3.4c-2-1.9-3-4.9-3-9c0-3.7,0.6-6.5,1.9-8.3
	c1.5-2.1,4.1-3.2,7.6-3.2c3.4,0,5.8,0.9,7.3,2.7c1.4,1.6,2,4.2,2,7.6v5.3h-7.2v-4.3c0-2.4-0.7-3.5-2.1-3.5c-1.4,0-2.1,1.4-2.1,4.1
	c0,1.9,1,3.4,3,4.6c3.2,1.8,5.1,2.9,5.6,3.5C27.1,28,28.1,31,28.1,35z"/>
<path class="st1" d="M37.5,15.6c0-1.4,0.5-2,1.7-2c1.1,0,1.7,0.8,1.7,2.4v13.4c0,1.6-0.6,2.4-1.7,2.4s-1.7-0.8-1.7-2.4V15.6z
	 M37.5,37.4c0.8,0.7,1.6,1.1,2.6,1.1c5.4,0,8.1-2.9,8.1-8.6V15.4c0-5.7-2.7-8.6-8.1-8.6c-1,0-1.9,0.3-2.6,0.8V6.1h-6.9v39.7h6.9
	V37.4z"/>
<path class="st1" d="M67.1,45.8H51.9V6.1h7.4V38h7.8V45.8z"/>
<path class="st1" d="M78.8,39.9c-1.4,0-2-0.9-2-2.6v-0.8c0-1.5,0.3-2.6,0.9-3.4c0.1-0.2,0.9-0.9,2.5-2.2v6.9
	C80.1,39.3,79.7,39.9,78.8,39.9z M87.3,14.7c0-5.7-2.8-8.5-8.5-8.5c-5.8,0-8.7,2.9-8.7,8.6v10.1h6.7v-9.6c0-1.6,0.6-2.4,1.7-2.4
	c1.1,0,1.7,0.8,1.7,2.4v7.4c0,1.7-0.9,2.8-2.8,3.5c-2.9,1.1-4.6,1.8-5.1,2.2c-1.8,1.5-2.7,4-2.7,7.6v1.8c0,5.9,2,8.8,5.9,8.8
	c2.1,0,3.7-1,4.7-2.9v2.1h7.2V14.7z"/>
<path class="st1" d="M108.8,35c0,4-0.6,6.9-1.7,8.5c-1.4,2.1-4,3.1-7.9,3.1c-3.6,0-6.1-0.8-7.5-2.5c-1.3-1.6-2-4.1-2-7.8v-5.2h7.4
	v4.2c0,2.4,0.7,3.5,2.1,3.5c1.4,0,2.1-1.2,2.1-3.5c0-2.4-1.1-4.1-3-5.4l-5.6-3.4c-2-1.9-3-4.9-3-9c0-3.7,0.6-6.5,1.9-8.3
	c1.5-2.1,4.1-3.2,7.6-3.2c3.4,0,5.8,0.9,7.3,2.7c1.4,1.6,2,4.2,2,7.6v5.3h-7.2v-4.3c0-2.4-0.7-3.5-2.1-3.5c-1.4,0-2.1,1.4-2.1,4.1
	c0,1.9,1,3.4,3,4.6c3.2,1.8,5.1,2.9,5.6,3.5C107.8,28,108.8,31,108.8,35z"/>
<path class="st1" d="M111.2,45.8V6.1h7.4v18.6h4.4V6.1h7.4v39.7H123V32.4h-4.4v13.3H111.2z"/>
<path class="st2" d="M143.5,44.2c-0.7,0.5-1.6,0.8-2.6,0.8c-5.4,0-8.1-2.8-8.1-8.5V21.9c0-5.7,2.7-8.5,8.1-8.5c1,0,1.8,0.4,2.6,1.1
	V6.1h6.8v39.7h-6.8V44.2z M143.5,22.1c0-1.4-0.6-2-1.7-2c-1.2,0-1.8,0.8-1.8,2.4v13.4c0,1.6,0.6,2.4,1.7,2.4c1.1,0,1.7-0.8,1.7-2.4
	V22.1z"/>
<path class="st2" d="M161.6,39.9c-1.1,0-1.6-0.9-1.6-2.6V15.5c0-1.7,0.5-2.6,1.6-2.6c1.1,0,1.6,0.9,1.6,2.6v21.8
	C163.2,39,162.7,39.9,161.6,39.9z M170.5,15.4c0-6.2-3-9.3-8.9-9.3c-5.9,0-8.9,3.1-8.9,9.3v22c0,6.2,3,9.3,8.9,9.3
	c5.9,0,8.9-3.1,8.9-9.3V15.4z"/>
<path class="st2" d="M188.4,43.4c-1.5,1.6-3.7,2.4-6.6,2.4c-5.9,0-8.9-3.1-8.9-9.3V6.1h7.3v30.3c0,1.8,0.5,2.6,1.6,2.6
	c1.1,0,1.6-0.9,1.6-2.6V6.1h7.3v29.4c0,2.4,0.6,3.6,1.8,3.6c0.9,0,1.4-1,1.4-3v-30h7.3v32.2c0,4.9-2.5,7.4-7.4,7.4
	C191.5,45.8,189.7,45,188.4,43.4z"/>
<path class="st2" d="M210.4,45.8h-6.9V6.1h6.9v1.1c0.8-0.7,1.6-1.1,2.6-1.1c5.4,0,8.1,2.8,8.1,8.5v31.1h-7.3V15.2
	c0-1.6-0.6-2.4-1.7-2.4c-1.1,0-1.7,0.8-1.7,2.4V45.8z"/>
<g>
	<path class="st3" d="M110.7,55.7c0-1.4,0.7-3.4,4-3.4c3.3,0,4,2,4,3.4V59H114v2.6c0,0.4,0,1,0.7,1c0.7,0,0.7-0.6,0.7-1v-1.5h3.3
		v1.3c0,1.4-0.7,3.4-4,3.4c-3.3,0-4-2-4-3.4V55.7z M114,56.8h1.5v-1.3c0-0.4,0-1-0.7-1c-0.7,0-0.7,0.6-0.7,1V56.8z"/>
	<path class="st3" d="M119.6,52.5h3.3l0.8,7.7h0l0.8-7.7h3.3l-2.2,12.1h-3.8L119.6,52.5z"/>
	<path class="st3" d="M128.6,55.7c0-1.4,0.7-3.4,4-3.4c3.3,0,4,2,4,3.4V59h-4.7v2.6c0,0.4,0,1,0.7,1c0.7,0,0.7-0.6,0.7-1v-1.5h3.3
		v1.3c0,1.4-0.7,3.4-4,3.4c-3.3,0-4-2-4-3.4V55.7z M131.8,56.8h1.5v-1.3c0-0.4,0-1-0.7-1c-0.7,0-0.7,0.6-0.7,1V56.8z"/>
	<path class="st3" d="M138,52.5h3.1v1.3h0c0.6-1,1.2-1.6,2.5-1.6c1.5,0,2.3,1.1,2.3,2.6v9.7h-3.3v-8.3c0-0.4,0-1.2-0.7-1.2
		c-0.7,0-0.7,0.9-0.7,1.2v8.3H138V52.5z"/>
	<path class="st3" d="M147.7,55h-0.8v-2.3h0.8V50h3.3v2.6h0.8V55H151v6.5c0,0.3,0,0.9,0.4,0.9h0.4v2.5h-1.6c-1.4,0-2.5-0.3-2.5-2.2
		V55z"/>
	<path class="st3" d="M157.2,60.8h2.9v0.7c0,0.5,0.1,1.1,0.8,1.1c0.5,0,0.7-0.3,0.7-0.9c0-1-1.1-1.6-2.2-2.4
		c-1.1-0.8-2.2-1.8-2.2-3.6c0-2.3,1.5-3.5,3.6-3.5c2.2,0,3.6,0.9,3.6,3.2V56h-2.9v-0.6c0-0.3,0-0.9-0.7-0.9c-0.5,0-0.7,0.3-0.7,0.8
		c0,1,1.3,1.5,2.2,2.4c1.1,0.9,2.2,1.7,2.2,3.6c0,1-0.2,3.6-3.7,3.6c-2.9,0-3.7-1.3-3.7-3.3V60.8z"/>
	<path class="st3" d="M165.8,55.7c0-1.4,0.7-3.4,4-3.4c3.3,0,4,2,4,3.4V59h-4.7v2.6c0,0.4,0,1,0.7,1c0.7,0,0.7-0.6,0.7-1v-1.5h3.3
		v1.3c0,1.4-0.7,3.4-4,3.4c-3.3,0-4-2-4-3.4V55.7z M169.1,56.8h1.5v-1.3c0-0.4,0-1-0.7-1c-0.7,0-0.7,0.6-0.7,1V56.8z"/>
	<path class="st3" d="M175.3,52.5h3.1v2.1h0c0.5-1.1,0.9-2.4,2.3-2.4v3.9H180c-1.1,0-1.4,0.7-1.4,1.5v6.9h-3.3V52.5z"/>
	<path class="st3" d="M180.9,52.5h3.3l0.8,7.7h0l0.8-7.7h3.3l-2.2,12.1h-3.8L180.9,52.5z"/>
	<path class="st3" d="M190.2,49.5h3.3v2.2h-3.3V49.5z M190.2,52.5h3.3v12.1h-3.3V52.5z"/>
	<path class="st3" d="M195.2,55.7c0-1.4,0.7-3.4,4-3.4c3.3,0,4,2,4,3.4V57H200v-1.5c0-0.4,0-1-0.7-1c-0.7,0-0.7,0.6-0.7,1v6.1
		c0,0.4,0,1,0.7,1c0.7,0,0.7-0.6,0.7-1v-2.2h3.3v1.9c0,1.4-0.7,3.4-4,3.4c-3.3,0-4-2-4-3.4V55.7z"/>
	<path class="st3" d="M204.7,55.7c0-1.4,0.7-3.4,4-3.4c3.3,0,4,2,4,3.4V59h-4.7v2.6c0,0.4,0,1,0.7,1c0.7,0,0.7-0.6,0.7-1v-1.5h3.3
		v1.3c0,1.4-0.7,3.4-4,3.4c-3.3,0-4-2-4-3.4V55.7z M207.9,56.8h1.5v-1.3c0-0.4,0-1-0.7-1c-0.7,0-0.7,0.6-0.7,1V56.8z"/>
	<path class="st3" d="M213.8,60.8h2.9v0.7c0,0.5,0.1,1.1,0.8,1.1c0.5,0,0.7-0.3,0.7-0.9c0-1-1.1-1.6-2.2-2.4
		c-1.1-0.8-2.2-1.8-2.2-3.6c0-2.3,1.5-3.5,3.6-3.5c2.2,0,3.6,0.9,3.6,3.2V56h-2.9v-0.6c0-0.3,0-0.9-0.7-0.9c-0.5,0-0.7,0.3-0.7,0.8
		c0,1,1.3,1.5,2.2,2.4c1.1,0.9,2.2,1.7,2.2,3.6c0,1-0.2,3.6-3.7,3.6c-2.9,0-3.7-1.3-3.7-3.3V60.8z"/>
</g>
</svg>
