<?xml version="1.0" encoding="utf-8"?>
<!-- Generator: Adobe Illustrator 20.0.0, SVG Export Plug-In . SVG Version: 6.00 Build 0)  -->
<svg version="1.1" id="Layer_1" xmlns="http://www.w3.org/2000/svg" xmlns:xlink="http://www.w3.org/1999/xlink" x="0px" y="0px"
	 viewBox="0 0 27 27" style="enable-background:new 0 0 27 27;" xml:space="preserve">
<style type="text/css">
	.st0{fill:#CAE7E6;}
</style>
<g>
	<path class="st0" d="M27,5.1v16.8c0,1.4-0.5,2.6-1.5,3.6c-1,1-2.2,1.5-3.6,1.5H5.1c-1.4,0-2.6-0.5-3.6-1.5c-1-1-1.5-2.2-1.5-3.6
		V5.1c0-1.4,0.5-2.6,1.5-3.6c1-1,2.2-1.5,3.6-1.5h16.8c1.4,0,2.6,0.5,3.6,1.5C26.5,2.5,27,3.7,27,5.1z M22.5,18.7c0-0.1,0-0.2,0-0.3
		c0-0.1-0.3-0.3-0.7-0.5c-0.4-0.3-0.9-0.5-1.6-0.9l-0.9-0.5c-0.1,0-0.2-0.1-0.3-0.2c-0.2-0.1-0.3-0.2-0.4-0.3
		C18.4,16,18.3,16,18.1,16c-0.2,0-0.5,0.2-0.8,0.6c-0.3,0.4-0.7,0.8-1,1.1c-0.3,0.4-0.6,0.6-0.8,0.6c-0.1,0-0.2,0-0.3-0.1
		c-0.1,0-0.2-0.1-0.3-0.1c-0.1,0-0.2-0.1-0.3-0.2c-0.1-0.1-0.2-0.1-0.2-0.1c-1.2-0.6-2.2-1.4-3-2.2c-0.8-0.8-1.6-1.8-2.2-3
		c0,0-0.1-0.1-0.1-0.2C9,12.2,8.9,12.1,8.9,12c0-0.1-0.1-0.2-0.1-0.3c0-0.1-0.1-0.2-0.1-0.3c0-0.2,0.1-0.3,0.4-0.6
		c0.2-0.2,0.5-0.5,0.8-0.7c0.3-0.2,0.5-0.4,0.8-0.7C10.9,9.3,11,9.1,11,8.9c0-0.1,0-0.2-0.1-0.4c-0.1-0.1-0.1-0.3-0.3-0.4
		c-0.1-0.2-0.2-0.3-0.2-0.3c0-0.1-0.1-0.2-0.3-0.5C10.1,7,9.9,6.7,9.8,6.4C9.6,6.2,9.4,5.9,9.3,5.6C9.1,5.3,9,5.1,8.9,4.9
		C8.7,4.7,8.6,4.6,8.6,4.6c-0.1,0-0.2,0-0.3,0c-0.6,0-1.2,0.1-1.8,0.4C6,5.2,5.5,5.7,5.1,6.6S4.5,8.2,4.5,8.9c0,0.2,0,0.4,0,0.6
		c0,0.2,0.1,0.4,0.1,0.5s0.1,0.3,0.2,0.6C4.9,10.8,4.9,11,5,11.1c0,0.1,0.1,0.3,0.2,0.6c0.1,0.3,0.2,0.5,0.2,0.5
		c0.7,1.9,2,3.8,3.8,5.6c1.8,1.8,3.7,3.1,5.6,3.8c0.1,0,0.2,0.1,0.5,0.2c0.3,0.1,0.5,0.2,0.6,0.2s0.3,0.1,0.5,0.2
		c0.2,0.1,0.4,0.1,0.6,0.2c0.1,0,0.3,0.1,0.5,0.1c0.2,0,0.4,0,0.6,0c0.7,0,1.4-0.2,2.3-0.6c0.9-0.4,1.4-0.9,1.7-1.4
		C22.3,19.9,22.5,19.3,22.5,18.7z"/>
</g>
</svg>
